<svg height="512pt" viewBox="0 0 512 512.25574" width="512pt" xmlns="http://www.w3.org/2000/svg"><path d="m409.875 256.128906c0 89.542969-72.589844 162.132813-162.132812 162.132813-4.269532 0-8.621094-.171875-12.800782-.511719-84.285156-6.714844-149.257812-77.070312-149.257812-161.621094 0-84.550781 64.972656-154.910156 149.257812-161.621094 4.179688-.34375 8.53125-.511718 12.800782-.511718 43 0 84.238281 17.082031 114.644531 47.484375 30.40625 30.40625 47.488281 71.648437 47.488281 114.648437zm0 0" fill="#a4c2f7"/><path d="m384.273438 256.128906c0-89.261718-66.859376-161.621094-149.332032-161.621094-82.476562 0-149.335937 72.359376-149.335937 161.621094 0 89.261719 66.859375 161.621094 149.335937 161.621094 82.472656 0 149.332032-72.359375 149.332032-161.621094zm0 0" fill="#e3e7f2"/><path d="m316.007812 196.394531c0 18.851563-15.28125 34.132813-34.132812 34.132813s-34.132812-15.28125-34.132812-34.132813c0-18.851562 15.28125-34.132812 34.132812-34.132812s34.132812 15.28125 34.132812 34.132812zm0 0" fill="#a4c2f7"/><path d="m196.539062 221.996094c0 14.136718-11.460937 25.597656-25.597656 25.597656-14.140625 0-25.601562-11.460938-25.601562-25.597656 0-14.140625 11.460937-25.601563 25.601562-25.601563 14.136719 0 25.597656 11.460938 25.597656 25.601563zm0 0" fill="#a4c2f7"/><path d="m273.339844 298.792969c0 14.140625-11.460938 25.601562-25.597656 25.601562-14.140626 0-25.601563-11.460937-25.601563-25.601562 0-14.136719 11.460937-25.597657 25.601563-25.597657 14.136718 0 25.597656 11.460938 25.597656 25.597657zm0 0" fill="#a4c2f7"/><path d="m273.339844 34.261719c0 14.136719-11.460938 25.597656-25.597656 25.597656-14.140626 0-25.601563-11.460937-25.601563-25.597656 0-14.140625 11.460937-25.601563 25.601563-25.601563 14.136718 0 25.597656 11.460938 25.597656 25.601563zm0 0" fill="#e3e7f2"/><path d="m112.921875 87.175781c0 18.851563-15.28125 34.132813-34.132813 34.132813-18.851562 0-34.132812-15.28125-34.132812-34.132813 0-18.851562 15.28125-34.132812 34.132812-34.132812 18.851563 0 34.132813 15.28125 34.132813 34.132812zm0 0" fill="#e3e7f2"/><path d="m51.472656 256.128906c0 11.78125-9.550781 21.332032-21.332031 21.332032s-21.332031-9.550782-21.332031-21.332032 9.550781-21.335937 21.332031-21.335937 21.332031 9.554687 21.332031 21.335937zm0 0" fill="#e3e7f2"/><path d="m112.921875 425.078125c0 18.851563-15.28125 34.132813-34.132813 34.132813-18.851562 0-34.132812-15.28125-34.132812-34.132813s15.28125-34.132813 34.132812-34.132813c18.851563 0 34.132813 15.28125 34.132813 34.132813zm0 0" fill="#e3e7f2"/><path d="m273.339844 477.996094c0 14.136718-11.460938 25.597656-25.597656 25.597656-14.140626 0-25.601563-11.460938-25.601563-25.597656 0-14.140625 11.460937-25.601563 25.601563-25.601563 14.136718 0 25.597656 11.460938 25.597656 25.601563zm0 0" fill="#e3e7f2"/><path d="m450.824219 425.078125c0 18.851563-15.28125 34.132813-34.132813 34.132813-18.851562 0-34.132812-15.28125-34.132812-34.132813s15.28125-34.132813 34.132812-34.132813c18.851563 0 34.132813 15.28125 34.132813 34.132813zm0 0" fill="#a4c2f7"/><path d="m503.742188 256.128906c0 14.136719-11.464844 25.597656-25.601563 25.597656s-25.601563-11.460937-25.601563-25.597656c0-14.140625 11.464844-25.601562 25.601563-25.601562s25.601563 11.460937 25.601563 25.601562zm0 0" fill="#a4c2f7"/><path d="m450.824219 87.175781c0 18.851563-15.28125 34.132813-34.132813 34.132813-18.851562 0-34.132812-15.28125-34.132812-34.132813 0-18.851562 15.28125-34.132812 34.132812-34.132812 18.851563 0 34.132813 15.28125 34.132813 34.132812zm0 0" fill="#a4c2f7"/><path d="m91.582031 118.828125c-.324219-.136719-.617187-.351563-.933593-.496094-1.398438-.613281-2.753907-1.320312-4.050782-2.125-.503906-.308593-1.007812-.597656-1.503906-.929687-8.425781-5.683594-13.855469-14.847656-14.792969-24.96875-.941406-10.121094 2.710938-20.128906 9.949219-27.265625 1.488281-1.46875 3.109375-2.796875 4.84375-3.96875.496094-.332031 1-.621094 1.503906-.929688 1.296875-.800781 2.652344-1.511719 4.050782-2.125.316406-.144531.609374-.355469.933593-.492187-14.257812-5.757813-30.601562-1.273438-39.925781 10.949218-9.320312 12.226563-9.320312 29.175782 0 41.398438 9.324219 12.222656 25.667969 16.707031 39.925781 10.953125zm0 0" fill="#fff"/><path d="m234.941406 417.75c4.179688.339844 8.53125.511719 12.800782.511719 4.058593 0 8.046874-.316407 12.039062-.605469-40.363281-3.324219-78.003906-21.6875-105.472656-51.449219-.128906-.136719-.238282-.289062-.359375-.425781-3.199219-3.480469-6.269531-7.089844-9.15625-10.847656-.339844-.441406-.628907-.929688-.972657-1.378906-2.628906-3.484376-5.171874-7.042969-7.507812-10.738282-.519531-.851562-.949219-1.707031-1.449219-2.558594-2.066406-3.414062-4.097656-6.828124-5.925781-10.367187-.679688-1.339844-1.21875-2.757813-1.867188-4.105469-1.5-3.140625-3.019531-6.261718-4.316406-9.503906-.753906-1.855469-1.308594-3.808594-1.980468-5.695312-1.015626-2.839844-2.109376-5.640626-2.960938-8.53125-.71875-2.40625-1.203125-4.898438-1.800781-7.347657-.597657-2.449219-1.332031-4.941406-1.828125-7.476562-.605469-3.15625-.960938-6.398438-1.390625-9.625-.253907-1.902344-.636719-3.769531-.851563-5.699219-.488281-5.195312-.734375-10.453125-.734375-15.777344 0-5.324218.253907-10.578125.757813-15.753906.191406-1.929688.574218-3.796875.855468-5.699219.425782-3.226562.785157-6.46875 1.390626-9.625.503906-2.5625 1.230468-5.042969 1.851562-7.5625.621094-2.515625 1.066406-4.878906 1.773438-7.253906.855468-2.933594 1.964843-5.765625 2.988281-8.625.664062-1.871094 1.210937-3.789063 1.953125-5.625 1.296875-3.242187 2.816406-6.367187 4.320312-9.503906.648438-1.359375 1.183594-2.765625 1.867188-4.105469 1.828125-3.550781 3.855468-6.972656 5.921875-10.367188.503906-.855468.929687-1.707031 1.449219-2.5625 2.3125-3.652343 4.832031-7.160156 7.425781-10.605468.367187-.496094.683593-1.023438 1.058593-1.511719 2.851563-3.710937 5.886719-7.269531 9.035157-10.707031.171875-.179688.316406-.386719.480469-.566406 27.457031-29.777344 65.101562-48.152344 105.46875-51.488282-4.015626-.257812-8.003907-.570312-12.0625-.570312-4.269532 0-8.621094.167968-12.800782.511718-84.285156 6.710938-149.257812 77.070313-149.257812 161.621094 0 84.550782 64.972656 154.90625 149.257812 161.621094zm0 0" fill="#fff"/><path d="m91.582031 456.730469c-.324219-.136719-.617187-.351563-.933593-.496094-1.398438-.609375-2.753907-1.320313-4.050782-2.125-.503906-.308594-1.007812-.597656-1.503906-.9375-1.734375-1.167969-3.355469-2.492187-4.84375-3.960937-13.328125-13.328126-13.328125-34.933594 0-48.265626 1.488281-1.46875 3.109375-2.796874 4.84375-3.964843.496094-.335938 1-.625 1.503906-.929688 1.296875-.804687 2.652344-1.515625 4.050782-2.125.316406-.148437.609374-.359375.933593-.496093-14.257812-5.757813-30.601562-1.273438-39.925781 10.949218-9.320312 12.226563-9.320312 29.175782 0 41.398438 9.324219 12.226562 25.667969 16.707031 39.925781 10.953125zm0 0" fill="#fff"/><path d="m94.140625 256.128906c.042969 84.8125 68.785156 153.554688 153.601563 153.597656v17.066407c-94.242188-.039063-170.625-76.425781-170.667969-170.664063zm0 0" fill="#fff"/><g fill="#428dff"><path d="m100.371094 330.914062c1.109375-.070312 2.195312-.359374 3.191406-.851562 1.984375-1.078125 3.527344-2.816406 4.359375-4.917969.714844-2.046875.613281-4.289062-.28125-6.261719-1.023437-1.894531-2.625-3.410156-4.566406-4.335937l-1.527344-.460937c-.558594-.121094-1.132813-.167969-1.707031-.136719-.535156-.054688-1.078125-.023438-1.601563.085937-.5625.117188-1.113281.269532-1.65625.453125-2.125.855469-3.832031 2.507813-4.761719 4.597657-.433593 1.085937-.644531 2.246093-.625 3.414062.269532 3.558594 2.53125 6.65625 5.839844 7.996094 1.070313.367187 2.207032.511718 3.335938.417968zm0 0"/><path d="m239.207031 384.128906c0 4.710938 3.820313 8.53125 8.535157 8.53125 75.367187-.089844 136.441406-61.164062 136.53125-136.53125 0-4.714844-3.820313-8.535156-8.53125-8.535156-4.714844 0-8.535157 3.820312-8.535157 8.535156-.070312 65.949219-53.515625 119.394532-119.464843 119.464844-4.714844 0-8.535157 3.820312-8.535157 8.535156zm0 0"/><path d="m281.875 153.726562c-23.566406 0-42.667969 19.105469-42.667969 42.667969s19.101563 42.667969 42.667969 42.667969c23.5625 0 42.664062-19.105469 42.664062-42.667969-.027343-23.550781-19.113281-42.636719-42.664062-42.667969zm0 68.269532c-14.140625 0-25.601562-11.464844-25.601562-25.601563s11.460937-25.601562 25.601562-25.601562c14.136719 0 25.597656 11.464843 25.597656 25.601562s-11.460937 25.601563-25.597656 25.601563zm0 0"/><path d="m170.941406 187.859375c-18.851562 0-34.132812 15.285156-34.132812 34.136719 0 18.851562 15.28125 34.132812 34.132812 34.132812 18.851563 0 34.132813-15.28125 34.132813-34.132812 0-18.851563-15.28125-34.136719-34.132813-34.136719zm0 51.203125c-9.425781 0-17.066406-7.640625-17.066406-17.066406 0-9.425782 7.640625-17.066406 17.066406-17.066406 9.425782 0 17.066406 7.640624 17.066406 17.066406 0 9.425781-7.640624 17.066406-17.066406 17.066406zm0 0"/><path d="m213.605469 298.792969c0 18.851562 15.285156 34.136719 34.136719 34.136719 18.847656 0 34.132812-15.285157 34.132812-34.136719 0-18.851563-15.285156-34.132813-34.132812-34.132813-18.851563 0-34.136719 15.28125-34.136719 34.132813zm34.136719-17.066407c9.425781 0 17.066406 7.640626 17.066406 17.066407s-7.640625 17.066406-17.066406 17.066406c-9.425782 0-17.070313-7.640625-17.070313-17.066406s7.644531-17.066407 17.070313-17.066407zm0 0"/><path d="m478.140625 221.996094c-15.515625.054687-29.042969 10.574218-32.921875 25.597656h-27.246094c-1.929687-39.273438-17.429687-76.65625-43.863281-105.769531l19.054687-19.054688c18.273438 12.078125 42.722657 8.359375 56.578126-8.609375 13.851562-16.964844 12.609374-41.667968-2.878907-57.15625-15.488281-15.488281-40.1875-16.730468-57.15625-2.878906-16.964843 13.855469-20.6875 38.304688-8.609375 56.578125l-19.011718 19.054687c-29.121094-26.441406-66.523438-41.945312-105.8125-43.863281v-18.710937c16.644531-4.296875 27.492187-20.300782 25.328124-37.351563-2.164062-17.050781-16.671874-29.832031-33.859374-29.832031-17.191407 0-31.695313 12.78125-33.863282 29.832031-2.164062 17.050781 8.6875 33.054688 25.328125 37.351563v18.710937c-39.273437 1.929688-76.660156 17.433594-105.769531 43.863281l-19.054688-19.054687c12.054688-18.25 8.332032-42.660156-8.609374-56.492187-16.941407-13.828126-41.605469-12.585938-57.070313 2.878906s-16.707031 40.128906-2.878906 57.070312c13.832031 16.945313 38.242187 20.664063 56.492187 8.609375l19.054688 19.054688c-26.429688 29.113281-41.933594 66.496093-43.863282 105.769531h-18.890624c-4.238282-14.210938-18.261719-23.160156-32.933594-21.019531-14.675782 2.140625-25.554688 14.722656-25.554688 29.554687 0 14.828125 10.878906 27.410156 25.554688 29.550782 14.671875 2.144531 28.695312-6.808594 32.933594-21.019532h18.910156l.503906 9.386719c.9375 5.90625 1.703125 11.871094 2.832031 17.734375.503907 2.261719 1.902344 4.226562 3.875 5.449219 1.96875 1.222656 4.351563 1.597656 6.601563 1.042969 4.433594-1.136719 7.175781-5.570313 6.222656-10.042969-1.042969-5.28125-1.707031-10.640625-2.558594-15.957031l-.863281-16.144532c-.035156-74.785156 53.765625-138.738281 127.453125-151.5 73.6875-12.761718 145.863281 29.375 170.976562 99.816406 25.113282 70.441407-4.128906 148.734376-69.269531 185.46875-65.140625 36.730469-147.269531 21.238282-194.550781-36.703124l-4.835938-6.484376c-2.890624-3.527343-7.957031-4.347656-11.8125-1.910156-1.949218 1.253906-3.277343 3.277344-3.648437 5.566406-.371094 2.289063.242187 4.628907 1.695313 6.4375l5.386718 7.1875c1.832032 2.25 3.734375 4.4375 5.679688 6.578126l-18.898438 18.902343c-18.273437-12.078125-42.722656-8.359375-56.578125 8.605469-13.851562 16.96875-12.609375 41.667969 2.878907 57.15625 15.488281 15.488281 40.191406 16.734375 57.15625 2.878906 16.964843-13.851562 20.6875-38.304687 8.609374-56.574218l18.953126-18.953126c29.257812 26.273438 66.605468 41.785157 105.871093 43.972657v18.5c-16.640625 4.296875-27.492187 20.296875-25.328125 37.347656 2.167969 17.054687 16.671875 29.832031 33.863282 29.832031 17.1875 0 31.695312-12.777344 33.859374-29.832031 2.164063-17.050781-8.683593-33.050781-25.328124-37.347656v-18.714844c39.289062-1.917969 76.691406-17.421875 105.8125-43.863281l19.054687 19.058594c-12.078125 18.269531-8.355469 42.722656 8.609375 56.574218 16.964844 13.855469 41.667969 12.609375 57.15625-2.878906s16.730469-40.1875 2.878906-57.15625c-13.855468-16.964844-38.304687-20.683594-56.578125-8.605469l-19.097656-19.015625c26.441406-29.121094 41.945313-66.523437 43.863281-105.8125h27.246094c4.464844 17.132813 21.304688 27.992188 38.753906 24.988282 17.445313-3.003907 29.6875-18.867188 28.167969-36.507813-1.523437-17.636719-16.296875-31.171875-34-31.144531zm-448 46.933594c-7.070313 0-12.800781-5.734376-12.800781-12.800782 0-7.070312 5.730468-12.800781 12.800781-12.800781s12.800781 5.730469 12.800781 12.800781c0 7.066406-5.730468 12.800782-12.800781 12.800782zm368.453125-199.851563c7.320312-7.324219 18.332031-9.515625 27.898438-5.554687 9.566406 3.960937 15.804687 13.296874 15.804687 23.652343s-6.238281 19.691407-15.804687 23.652344c-9.566407 3.960937-20.578126 1.769531-27.898438-5.550781-4.820312-4.792969-7.53125-11.304688-7.53125-18.101563 0-6.792969 2.710938-13.308593 7.53125-18.097656zm-167.921875-34.816406c0-9.425781 7.644531-17.066407 17.070313-17.066407 9.425781 0 17.066406 7.640626 17.066406 17.066407s-7.640625 17.066406-17.066406 17.066406c-9.425782 0-17.070313-7.640625-17.070313-17.066406zm-169.980469 71.015625c-7.324218-7.324219-9.515625-18.335938-5.554687-27.902344 3.960937-9.566406 13.296875-15.804688 23.652343-15.804688 10.355469 0 19.691407 6.238282 23.652344 15.804688 3.960938 9.566406 1.769532 20.578125-5.554687 27.902344-9.996094 9.992187-26.199219 9.992187-36.195313 0zm36.195313 337.917968c-7.320313 7.324219-18.332031 9.515626-27.898438 5.554688-9.566406-3.964844-15.804687-13.296875-15.804687-23.652344 0-10.355468 6.238281-19.691406 15.804687-23.652344 9.566407-3.964843 20.578125-1.769531 27.898438 5.550782 9.984375 9.996094 9.984375 26.1875 0 36.183594zm167.921875 34.800782c0 9.425781-7.640625 17.066406-17.066406 17.066406-9.425782 0-17.070313-7.640625-17.070313-17.066406 0-9.425782 7.644531-17.066406 17.070313-17.066406 9.425781 0 17.066406 7.640624 17.066406 17.066406zm151.890625-78.507813c12.214843.003907 22.722656 8.636719 25.101562 20.617188 2.375 11.980469-4.042969 23.972656-15.328125 28.640625-11.289062 4.667968-24.300781.710937-31.078125-9.449219-6.78125-10.160156-5.4375-23.695313 3.207031-32.324219 4.796876-4.804687 11.308594-7.496094 18.097657-7.484375zm61.441406-126.292969c-9.425781 0-17.066406-7.640624-17.066406-17.066406 0-9.425781 7.640625-17.066406 17.066406-17.066406s17.066406 7.640625 17.066406 17.066406c0 9.425782-7.640625 17.066406-17.066406 17.066406zm0 0"/><path d="m150.632812 290.945312c-1.035156.429688-1.988281 1.039063-2.816406 1.789063-1.558594 1.636719-2.441406 3.800781-2.476562 6.058594.015625 1.117187.246094 2.21875.683594 3.246093.410156 1.042969 1.019531 2 1.792968 2.8125.828125.753907 1.78125 1.359376 2.816406 1.792969 1.023438.4375 2.125.667969 3.242188.683594 2.257812-.035156 4.421875-.917969 6.058594-2.476563.769531-.8125 1.378906-1.769531 1.789062-2.8125.4375-1.027343.671875-2.128906.683594-3.246093-.03125-2.257813-.914062-4.421875-2.472656-6.058594-2.476563-2.375-6.121094-3.078125-9.300782-1.789063zm0 0"/><path d="m193.296875 342.144531c-1.03125.433594-1.984375 1.039063-2.816406 1.792969-1.554688 1.632812-2.441407 3.796875-2.472657 6.058594.011719 1.113281.246094 2.214844.683594 3.242187.410156 1.042969 1.019532 2 1.789063 2.816407.832031.75 1.785156 1.359374 2.816406 1.789062 1.027344.4375 2.128906.671875 3.242187.683594 2.261719-.03125 4.425782-.917969 6.058594-2.472656.773438-.816407 1.382813-1.773438 1.792969-2.816407.4375-1.027343.667969-2.128906.683594-3.242187-.035157-2.261719-.917969-4.425782-2.476563-6.058594-2.476562-2.378906-6.117187-3.082031-9.300781-1.792969zm0 0"/></g></svg>